<svg xmlns="http://www.w3.org/2000/svg" width="60" height="60" fill="none"><path fill="#EFC9A4" d="M48.75 5h-37.5C5.048 5 0 10.047 0 16.25v27.5C0 49.953 5.048 55 11.25 55h37.5C54.953 55 60 49.953 60 43.75v-27.5C60 10.047 54.953 5 48.75 5Zm-37.5 2.5h37.5c2.71 0 5.108 1.265 6.715 3.207l-19.228 19.23a8.803 8.803 0 0 1-6.242 2.563c-2.285-.042-4.565-.9-6.23-2.563l-19.23-19.23C6.142 8.765 8.537 7.5 11.25 7.5ZM57.5 43.75c0 4.825-3.925 8.75-8.75 8.75h-37.5c-4.825 0-8.75-3.925-8.75-8.75v-27.5c0-1.193.243-2.328.678-3.365l18.82 18.82A11.163 11.163 0 0 0 29.94 35c2.992 0 5.937-1.167 8.065-3.295l18.82-18.82a8.677 8.677 0 0 1 .677 3.365l-.002 27.5Z"/></svg>