<svg xmlns="http://www.w3.org/2000/svg" width="88" height="64" fill="none"><path fill="#EFC9A4" d="M61.637 29.706c0 12.133-11.392 16.62-11.57 16.687.163-.18 9.145-10.32-1.125-14.257 1.39 2.927.667 6.622-2.332 6.622-4.816 0-5.895-6.288-4.502-12.556 1.109-5.006 1.975-8.31 2-11.689-2.018 6.833-8.645 13.235-8.645 20.873 0 6.836 5.353 11.01 5.353 11.01-7.729.004-14.493-8.078-14.067-16.84C27.13 21.68 32.18 18.4 32.18 18.4s-1.18 2.462-1.249 5.244c-.065 2.637.643 3.87 1.654 3.795 2.433-.178.675-3.99 1.837-9.376C36.141 10.083 45.397 7.386 41.931 0c0 0 9.552 3.436 9.552 12.279 0 4.253-3.613 10.662 1.455 11.234 3.476.394 3.902-5.006 3.902-5.006s4.8 4.217 4.8 11.191l-.003.008ZM2.15 58.211l-.607 5.303H0l1.214-9.15 3.63 5.914 3.643-5.914 1.215 9.15H8.158l-.62-5.303-2.694 4.494-2.694-4.494Zm10.079.946c0 .598.126 1.133.38 1.606.26.465.619.83 1.074 1.096a3.03 3.03 0 0 0 1.556.398c.59 0 1.109-.133 1.556-.398.455-.266.81-.631 1.063-1.096a3.265 3.265 0 0 0 .392-1.606c0-.597-.127-1.128-.38-1.593a2.766 2.766 0 0 0-1.062-1.108c-.447-.266-.97-.399-1.569-.399-.582 0-1.1.133-1.556.399a2.854 2.854 0 0 0-1.075 1.108c-.253.465-.38.996-.38 1.593Zm-1.581 0c0-.655.114-1.257.341-1.805.228-.548.548-1.02.961-1.42a4.536 4.536 0 0 1 1.468-.945 4.894 4.894 0 0 1 1.821-.336c.666 0 1.278.112 1.834.336a4.38 4.38 0 0 1 1.455.946c.422.398.746.871.974 1.42.228.547.341 1.149.341 1.804 0 .648-.113 1.25-.341 1.805a4.273 4.273 0 0 1-.961 1.444 4.515 4.515 0 0 1-1.468.96 4.866 4.866 0 0 1-1.834.335 4.93 4.93 0 0 1-1.834-.336 4.515 4.515 0 0 1-1.467-.959 4.37 4.37 0 0 1-.949-1.444 4.718 4.718 0 0 1-.341-1.805Zm17.11-4.357h1.468v9.15l-6.464-6.287v5.852h-1.467v-9.15l6.463 6.286V54.8Zm3.431 0h1.53v8.715h-1.53V54.8Zm4.82 0h1.795l-3.731 4.083 3.921 4.631H36.16l-3.896-4.593 3.744-4.121Zm3.593 5.913c.194.332.4.627.62.884.228.25.477.444.746.585.27.133.574.2.911.2.405 0 .734-.108.987-.324.253-.216.38-.494.38-.834 0-.324-.081-.581-.241-.772a1.82 1.82 0 0 0-.67-.498 8.508 8.508 0 0 0-.975-.41 7.712 7.712 0 0 1-.733-.3 4.433 4.433 0 0 1-.772-.485c-.244-.2-.447-.44-.607-.722-.16-.29-.24-.64-.24-1.046 0-.465.122-.871.367-1.22.244-.357.573-.63.986-.822a3.31 3.31 0 0 1 1.43-.298c.522 0 .978.09 1.366.273.387.183.712.416.974.698.27.282.48.577.632.884l-1.214.672a2.637 2.637 0 0 0-.418-.598 1.833 1.833 0 0 0-.594-.448 1.624 1.624 0 0 0-.772-.174c-.413 0-.717.095-.91.286a.86.86 0 0 0-.291.648c0 .224.067.427.202.61.143.174.363.34.658.497.295.158.678.32 1.15.486.262.091.523.208.785.349.27.14.514.32.733.535a2.305 2.305 0 0 1 .721 1.73c0 .407-.08.772-.24 1.096-.16.324-.38.597-.657.822a3.122 3.122 0 0 1-.95.497 3.186 3.186 0 0 1-1.087.187c-.523 0-1.008-.1-1.455-.299a3.91 3.91 0 0 1-1.15-.821c-.33-.34-.59-.71-.785-1.108l1.113-.76Zm11.636-1.556c0 .614.139 1.154.417 1.619.287.464.658.825 1.113 1.083.464.249.966.373 1.506.373a3.54 3.54 0 0 0 2.05-.597c.277-.191.517-.403.72-.635v1.743a4.228 4.228 0 0 1-1.202.684c-.43.158-.97.237-1.619.237-.65 0-1.256-.108-1.821-.324a4.227 4.227 0 0 1-1.455-.934 4.469 4.469 0 0 1-.974-1.431 4.75 4.75 0 0 1-.341-1.818c0-.655.113-1.257.341-1.805.236-.556.56-1.037.974-1.444a4.227 4.227 0 0 1 1.455-.934 5.061 5.061 0 0 1 1.821-.323c.65 0 1.189.078 1.619.236.43.158.83.386 1.202.685v1.743a3.48 3.48 0 0 0-.721-.623c-.27-.19-.574-.34-.911-.448a3.728 3.728 0 0 0-1.138-.162c-.54 0-1.042.129-1.506.386a2.969 2.969 0 0 0-1.113 1.07c-.278.457-.417.997-.417 1.62Zm9.466.199h1.62l2.997 4.158h-1.796l-2.82-4.158ZM58.883 54.8h1.492v8.715h-1.492V54.8Zm.885 1.27V54.8h1.847c.64 0 1.197.112 1.67.336.48.224.851.54 1.113.946.261.399.392.872.392 1.42 0 .547-.13 1.024-.392 1.431a2.582 2.582 0 0 1-1.113.946c-.473.224-1.03.336-1.67.336h-1.847v-1.207h1.784c.337 0 .632-.058.885-.174a1.38 1.38 0 0 0 .607-.498c.144-.224.215-.49.215-.797 0-.316-.071-.581-.215-.797a1.38 1.38 0 0 0-.607-.498 2.103 2.103 0 0 0-.885-.174h-1.784Zm7.7 5.204.278-1.245h4.111l.291 1.245h-4.68Zm2.315-4.009-1.392 3.2-.025.323-1.227 2.727h-1.682l4.326-9.2 4.326 9.2h-1.683l-1.201-2.652-.038-.361-1.404-3.237Zm7.473 3.66L79.86 54.8h1.72L77.257 64l-4.326-9.2h1.72l2.606 6.125Zm6.279 2.589V62.22H88v1.294h-4.465Zm0-7.42V54.8H88v1.295h-4.465Zm0 3.387v-1.27h4.212v1.27h-4.212Zm-.923-4.681h1.467v8.715h-1.467V54.8Z"/></svg>