<svg xmlns="http://www.w3.org/2000/svg" width="60" height="60" fill="none"><g clip-path="url(#a)"><path fill="#EFC9A4" d="m4.325 4.425 2.8-2.45C9.675-.575 14-.7 16.75 2.1l4.675 6.125c2.625 2.625 2.625 6.9 0 9.5L17.7 21.55c4.05 9.5 11.525 17 20.725 20.75l3.825-3.725A6.656 6.656 0 0 1 47 36.6c1.8 0 3.475.7 4.625 1.875l6.35 4.9c2.625 2.625 2.625 6.9.05 9.45l-2.55 2.925c-2.75 2.75-6.45 4.275-10.475 4.275-19.375 0-45.05-25.7-45.05-45.05 0-4 1.525-7.725 4.325-10.525l.05-.025ZM45.05 57.5c3.35 0 6.425-1.25 8.65-3.475l2.55-2.95c1.65-1.65 1.65-4.325.125-5.875l-6.35-4.9c-.8-.8-1.85-1.25-3-1.25s-2.2.45-3 1.25L39.6 44.625c-.35.35-.85.45-1.325.275-10.425-3.975-18.9-12.45-23.225-23.2a1.294 1.294 0 0 1 .275-1.35l4.325-4.425c1.65-1.65 1.65-4.325-.1-6.1L14.875 3.7c-1.65-1.65-4.325-1.65-6.05.05l-2.8 2.45C3.75 8.475 2.5 11.55 2.5 14.9c0 17.9 24.65 42.55 42.55 42.55v.05Z"/></g><defs><clipPath id="a"><path fill="#fff" d="M60 0H0v60h60z"/></clipPath></defs></svg>