<svg xmlns="http://www.w3.org/2000/svg" width="60" height="60" fill="none"><path fill="#EFC9A4" d="M30 60c-3.043 0-6.282-1.61-8.457-4.197C10.875 43.113 5 32.172 5 25 5 11.215 16.215 0 30 0s25 11.215 25 25c0 7.172-5.875 18.112-16.542 30.803C36.285 58.39 33.041 60 30 60Zm0-57.5C17.595 2.5 7.5 12.595 7.5 25c0 6.488 5.818 17.13 15.957 29.195 1.685 2.008 4.255 3.303 6.543 3.303 2.288 0 4.855-1.298 6.542-3.303C46.685 42.13 52.5 31.488 52.5 25 52.5 12.592 42.407 2.5 30 2.5Z"/><path fill="#EFC9A4" d="M30 35c-5.515 0-10-4.485-10-10s4.485-10 10-10 10 4.485 10 10-4.485 10-10 10Zm0-17.5c-4.135 0-7.5 3.365-7.5 7.5s3.365 7.5 7.5 7.5 7.5-3.365 7.5-7.5-3.365-7.5-7.5-7.5Z"/></svg>